<svg width="225" height="49" viewBox="0 0 225 49" fill="none" xmlns="http://www.w3.org/2000/svg">
<path d="M6.60636 49C5.67434 48.3238 4.80629 47.5837 4.00219 46.7796C3.1981 45.9755 2.49452 45.0709 1.89145 44.0658C1.30665 43.0607 0.840643 41.9459 0.493421 40.7215C0.164474 39.4971 0 38.1173 0 36.5822C0 35.0837 0.173611 33.7314 0.520833 32.5252C0.868055 31.3191 1.3432 30.2135 1.94627 29.2083C2.54934 28.2032 3.25292 27.2803 4.05702 26.4397C4.87939 25.5808 5.75658 24.7675 6.6886 24L7.26425 24.4934C6.53326 25.2792 5.86623 26.0833 5.26316 26.9057C4.66009 27.7281 4.13925 28.6235 3.70066 29.5921C3.28034 30.5607 2.95139 31.6206 2.71382 32.7719C2.47624 33.905 2.35746 35.1751 2.35746 36.5822C2.35746 37.9528 2.48538 39.223 2.74123 40.3925C2.99708 41.5439 3.3443 42.6038 3.78289 43.5724C4.23977 44.5592 4.7606 45.4547 5.34539 46.2588C5.94846 47.0629 6.58808 47.7939 7.26425 48.4518L6.60636 49Z" fill="#FF2F2F"/>
<path d="M19.0179 39.6524C19.0179 40.0545 19.027 40.4017 19.0453 40.6941C19.0636 40.9865 19.0819 41.2971 19.1001 41.6261L20.9916 41.9002V42.4759C20.5347 42.7134 20.023 42.9236 19.4565 43.1064C18.9083 43.2891 18.3783 43.4262 17.8666 43.5175H17.1813C16.9985 43.0972 16.8889 42.6403 16.8523 42.1469C16.8158 41.6352 16.7884 41.0779 16.7701 40.4748H16.633C16.5599 40.8403 16.4137 41.2149 16.1944 41.5987C15.9934 41.9642 15.7193 42.2931 15.3721 42.5855C15.0431 42.8779 14.6502 43.1155 14.1933 43.2982C13.7365 43.481 13.2156 43.5724 12.6308 43.5724C11.5161 43.5724 10.6023 43.2343 9.88962 42.5581C9.19518 41.8819 8.84795 40.9956 8.84795 39.8991C8.84795 39.0585 9.01243 38.3732 9.34138 37.8432C9.6886 37.295 10.1912 36.8655 10.8491 36.5548C11.5069 36.2442 12.3202 36.0249 13.2887 35.8969C14.2573 35.7507 15.3812 35.6411 16.6605 35.568C16.7336 34.7822 16.7518 34.0786 16.7153 33.4572C16.697 32.8176 16.5965 32.2785 16.4137 31.8399C16.2493 31.383 15.9934 31.0358 15.6462 30.7982C15.3173 30.5424 14.8787 30.4145 14.3304 30.4145C14.0746 30.4145 13.7822 30.4327 13.4532 30.4693C13.1425 30.4876 12.8319 30.5607 12.5212 30.6886L11.2328 33.9781H10.5201C10.3374 33.4298 10.1729 32.8633 10.0267 32.2785C9.89876 31.6937 9.81652 31.1181 9.77997 30.5515C10.4744 30.1312 11.242 29.8023 12.0826 29.5647C12.9415 29.3271 13.8918 29.2083 14.9335 29.2083C15.8655 29.2083 16.6056 29.3454 17.1539 29.6195C17.7204 29.8754 18.1499 30.2135 18.4423 30.6338C18.7347 31.0541 18.9265 31.5201 19.0179 32.0318C19.1093 32.5435 19.155 33.0552 19.155 33.5669C19.155 34.6634 19.1276 35.7233 19.0727 36.7467C19.0362 37.7518 19.0179 38.7204 19.0179 39.6524ZM13.7273 41.8728C14.1842 41.8728 14.5863 41.7814 14.9335 41.5987C15.2807 41.4159 15.5731 41.1966 15.8107 40.9408C16.0482 40.6849 16.2401 40.4291 16.3863 40.1732C16.5325 39.8991 16.633 39.6707 16.6879 39.4879V36.6096C15.6279 36.6096 14.7599 36.6645 14.0837 36.7741C13.4075 36.8838 12.8776 37.0574 12.4938 37.295C12.11 37.5325 11.845 37.8341 11.6988 38.1996C11.5526 38.5468 11.4795 38.9488 11.4795 39.4057C11.4795 40.1915 11.6806 40.8037 12.0826 41.2423C12.4847 41.6626 13.0329 41.8728 13.7273 41.8728Z" fill="#FF2F2F"/>
<path d="M28.4148 43.2434H23.7456V42.7797C24.0121 42.6624 24.2786 42.5612 24.5451 42.4759C24.8223 42.3799 25.0995 42.3 25.3766 42.236V34.3847L25.4406 33.4412C25.1421 33.5585 24.833 33.6438 24.5131 33.6971C24.1933 33.7397 23.8629 33.7557 23.5217 33.7451L23.4418 33.3613C23.9322 33.2014 24.4385 33.0042 24.9609 32.7696C25.4832 32.5245 25.9683 32.2206 26.416 31.8582H26.8158V42.236C27.0823 42.3 27.3488 42.3799 27.6153 42.4759C27.8818 42.5612 28.1483 42.6624 28.4148 42.7797V43.2434Z" fill="#FF2F2F"/>
<path d="M41.3841 39.6524C41.3841 40.0545 41.3932 40.4017 41.4115 40.6941C41.4298 40.9865 41.448 41.2971 41.4663 41.6261L43.3578 41.9002V42.4759C42.9009 42.7134 42.3892 42.9236 41.8227 43.1064C41.2744 43.2891 40.7445 43.4262 40.2328 43.5175H39.5475C39.3647 43.0972 39.2551 42.6403 39.2185 42.1469C39.182 41.6352 39.1546 41.0779 39.1363 40.4748H38.9992C38.9261 40.8403 38.7799 41.2149 38.5606 41.5987C38.3596 41.9642 38.0855 42.2931 37.7382 42.5855C37.4093 42.8779 37.0164 43.1155 36.5595 43.2982C36.1027 43.481 35.5818 43.5724 34.997 43.5724C33.8823 43.5724 32.9685 43.2343 32.2558 42.5581C31.5613 41.8819 31.2141 40.9956 31.2141 39.8991C31.2141 39.0585 31.3786 38.3732 31.7075 37.8432C32.0548 37.295 32.5573 36.8655 33.2152 36.5548C33.8731 36.2442 34.6863 36.0249 35.6549 35.8969C36.6235 35.7507 37.7474 35.6411 39.0266 35.568C39.0997 34.7822 39.118 34.0786 39.0815 33.4572C39.0632 32.8176 38.9627 32.2785 38.7799 31.8399C38.6154 31.383 38.3596 31.0358 38.0124 30.7982C37.6834 30.5424 37.2448 30.4145 36.6966 30.4145C36.4407 30.4145 36.1483 30.4327 35.8194 30.4693C35.5087 30.4876 35.198 30.5607 34.8874 30.6886L33.599 33.9781H32.8863C32.7035 33.4298 32.5391 32.8633 32.3929 32.2785C32.2649 31.6937 32.1827 31.1181 32.1461 30.5515C32.8406 30.1312 33.6081 29.8023 34.4488 29.5647C35.3077 29.3271 36.258 29.2083 37.2997 29.2083C38.2317 29.2083 38.9718 29.3454 39.52 29.6195C40.0866 29.8754 40.516 30.2135 40.8084 30.6338C41.1008 31.0541 41.2927 31.5201 41.3841 32.0318C41.4755 32.5435 41.5211 33.0552 41.5211 33.5669C41.5211 34.6634 41.4937 35.7233 41.4389 36.7467C41.4024 37.7518 41.3841 38.7204 41.3841 39.6524ZM36.0935 41.8728C36.5504 41.8728 36.9524 41.7814 37.2997 41.5987C37.6469 41.4159 37.9393 41.1966 38.1768 40.9408C38.4144 40.6849 38.6063 40.4291 38.7525 40.1732C38.8987 39.8991 38.9992 39.6707 39.054 39.4879V36.6096C37.9941 36.6096 37.126 36.6645 36.4499 36.7741C35.7737 36.8838 35.2437 37.0574 34.86 37.295C34.4762 37.5325 34.2112 37.8341 34.065 38.1996C33.9188 38.5468 33.8457 38.9488 33.8457 39.4057C33.8457 40.1915 34.0467 40.8037 34.4488 41.2423C34.8508 41.6626 35.3991 41.8728 36.0935 41.8728Z" fill="#FF2F2F"/>
<path d="M46.1118 35.1682H45.712C45.5947 34.8591 45.4722 34.4966 45.3442 34.0809C45.227 33.6651 45.1257 33.2707 45.0404 32.8976C45.4135 32.5778 45.8613 32.3272 46.3836 32.146C46.906 31.9541 47.471 31.8582 48.0786 31.8582C48.6116 31.8582 49.07 31.9328 49.4538 32.0821C49.8376 32.2313 50.152 32.4338 50.3972 32.6897C50.6531 32.9455 50.8396 33.244 50.9569 33.5852C51.0742 33.9156 51.1328 34.2621 51.1328 34.6245C51.1328 35.2215 50.9942 35.8345 50.717 36.4634C50.4399 37.0924 50.0934 37.7054 49.6777 38.3024C49.2726 38.8887 48.8302 39.443 48.3504 39.9654C47.8707 40.4877 47.4283 40.9461 47.0232 41.3406L46.3516 41.9642V42.0281L47.2471 41.9322H49.9975L50.781 40.1413H51.1808C51.2021 40.3758 51.2234 40.6316 51.2447 40.9088C51.266 41.186 51.282 41.4685 51.2927 41.7563C51.314 42.0335 51.33 42.3053 51.3407 42.5718C51.3513 42.8277 51.3567 43.0515 51.3567 43.2434H44.7526V42.7317C44.9871 42.4865 45.2696 42.188 45.6001 41.8363C45.9412 41.4845 46.293 41.0954 46.6555 40.669C47.0179 40.2425 47.375 39.7895 47.7268 39.3098C48.0893 38.83 48.4091 38.345 48.6862 37.8546C48.9634 37.3536 49.1873 36.8579 49.3578 36.3675C49.5391 35.8771 49.6297 35.4081 49.6297 34.9603C49.6297 34.6512 49.587 34.358 49.5018 34.0809C49.4271 33.8037 49.3099 33.5638 49.15 33.3613C48.9901 33.1481 48.7928 32.9829 48.5583 32.8656C48.3345 32.7483 48.0733 32.6897 47.7748 32.6897C47.5509 32.6897 47.3537 32.7057 47.1831 32.7377C47.0126 32.7696 46.826 32.8176 46.6235 32.8816L46.1118 35.1682Z" fill="#FF2F2F"/>
<path d="M63.7503 39.6524C63.7503 40.0545 63.7594 40.4017 63.7777 40.6941C63.7959 40.9865 63.8142 41.2971 63.8325 41.6261L65.7239 41.9002V42.4759C65.2671 42.7134 64.7554 42.9236 64.1888 43.1064C63.6406 43.2891 63.1106 43.4262 62.5989 43.5175H61.9136C61.7309 43.0972 61.6212 42.6403 61.5847 42.1469C61.5481 41.6352 61.5207 41.0779 61.5024 40.4748H61.3654C61.2923 40.8403 61.1461 41.2149 60.9268 41.5987C60.7258 41.9642 60.4516 42.2931 60.1044 42.5855C59.7755 42.8779 59.3826 43.1155 58.9257 43.2982C58.4688 43.481 57.948 43.5724 57.3632 43.5724C56.2484 43.5724 55.3347 43.2343 54.622 42.5581C53.9275 41.8819 53.5803 40.9956 53.5803 39.8991C53.5803 39.0585 53.7448 38.3732 54.0737 37.8432C54.4209 37.295 54.9235 36.8655 55.5814 36.5548C56.2393 36.2442 57.0525 36.0249 58.0211 35.8969C58.9897 35.7507 60.1136 35.6411 61.3928 35.568C61.4659 34.7822 61.4842 34.0786 61.4476 33.4572C61.4293 32.8176 61.3288 32.2785 61.1461 31.8399C60.9816 31.383 60.7258 31.0358 60.3785 30.7982C60.0496 30.5424 59.611 30.4145 59.0628 30.4145C58.8069 30.4145 58.5145 30.4327 58.1856 30.4693C57.8749 30.4876 57.5642 30.5607 57.2535 30.6886L55.9652 33.9781H55.2524C55.0697 33.4298 54.9052 32.8633 54.759 32.2785C54.6311 31.6937 54.5489 31.1181 54.5123 30.5515C55.2068 30.1312 55.9743 29.8023 56.8149 29.5647C57.6739 29.3271 58.6242 29.2083 59.6658 29.2083C60.5978 29.2083 61.338 29.3454 61.8862 29.6195C62.4527 29.8754 62.8822 30.2135 63.1746 30.6338C63.467 31.0541 63.6589 31.5201 63.7503 32.0318C63.8416 32.5435 63.8873 33.0552 63.8873 33.5669C63.8873 34.6634 63.8599 35.7233 63.8051 36.7467C63.7685 37.7518 63.7503 38.7204 63.7503 39.6524ZM58.4597 41.8728C58.9166 41.8728 59.3186 41.7814 59.6658 41.5987C60.013 41.4159 60.3054 41.1966 60.543 40.9408C60.7806 40.6849 60.9725 40.4291 61.1187 40.1732C61.2649 39.8991 61.3654 39.6707 61.4202 39.4879V36.6096C60.3603 36.6096 59.4922 36.6645 58.816 36.7741C58.1399 36.8838 57.6099 37.0574 57.2261 37.295C56.8424 37.5325 56.5774 37.8341 56.4312 38.1996C56.285 38.5468 56.2119 38.9488 56.2119 39.4057C56.2119 40.1915 56.4129 40.8037 56.8149 41.2423C57.217 41.6626 57.7652 41.8728 58.4597 41.8728Z" fill="#FF2F2F"/>
<path d="M70.4448 42.6838C70.7433 42.6838 71.0204 42.6198 71.2763 42.4919C71.5321 42.3533 71.756 42.1721 71.9479 41.9482C72.1398 41.7137 72.289 41.4472 72.3956 41.1487C72.5129 40.8502 72.5715 40.5357 72.5715 40.2052C72.5715 39.8108 72.5075 39.4643 72.3796 39.1658C72.2624 38.8674 72.0971 38.6222 71.8839 38.4303C71.6707 38.2277 71.4202 38.0785 71.1324 37.9825C70.8552 37.8759 70.5514 37.8226 70.2209 37.8226H69.1815V37.3909L71.8679 33.793L72.4116 33.2334V33.1694L71.5481 33.2654H68.8457L68.2221 34.8964H67.8223C67.7797 34.6725 67.737 34.4327 67.6944 34.1768C67.6624 33.921 67.6304 33.6704 67.5985 33.4253C67.5665 33.1694 67.5398 32.9242 67.5185 32.6897C67.4972 32.4552 67.4865 32.242 67.4865 32.0501H73.7388V32.5458L71.0684 36.1117L70.3808 36.8152V36.8472L70.9245 36.7353C71.4255 36.7566 71.8733 36.8526 72.2677 37.0231C72.6621 37.1937 72.9926 37.4229 73.2591 37.7107C73.5363 37.9879 73.7441 38.3183 73.8827 38.7021C74.032 39.0752 74.1066 39.4857 74.1066 39.9334C74.1066 40.4664 74 40.9514 73.7868 41.3885C73.5736 41.8149 73.2857 42.1827 72.9233 42.4919C72.5715 42.7904 72.1611 43.0249 71.692 43.1954C71.2336 43.3554 70.7486 43.4353 70.2369 43.4353C69.9917 43.4353 69.7305 43.414 69.4534 43.3713C69.1762 43.3394 68.9044 43.2861 68.6378 43.2114C68.3713 43.1368 68.1208 43.0515 67.8863 42.9556C67.6624 42.8596 67.4705 42.7477 67.3106 42.6198L67.7584 41.1806H68.0782C68.1421 41.2553 68.2274 41.3512 68.334 41.4685C68.4513 41.5857 68.5686 41.7083 68.6858 41.8363C68.8137 41.9642 68.9363 42.0921 69.0536 42.22C69.1709 42.348 69.2721 42.4599 69.3574 42.5558C69.464 42.5772 69.6026 42.6038 69.7732 42.6358C69.9437 42.6678 70.1676 42.6838 70.4448 42.6838Z" fill="#FF2F2F"/>
<path d="M76.2754 47.3278C76.6226 47.1999 76.9516 46.9989 77.2623 46.7248C77.5729 46.4689 77.8379 46.1765 78.0572 45.8476C78.2948 45.5186 78.4684 45.1531 78.578 44.7511C78.706 44.3673 78.7517 43.9836 78.7151 43.5998C78.4958 43.3988 78.2034 43.1977 77.8379 42.9967C77.4724 42.7957 77.1526 42.6495 76.8785 42.5581C76.7871 42.2109 76.778 41.8728 76.8511 41.5439C76.9424 41.2149 77.0704 40.9225 77.2348 40.6667C77.3993 40.4108 77.5821 40.2098 77.7831 40.0636C78.0024 39.8991 78.2126 39.8077 78.4136 39.7895C79.0532 39.8808 79.6106 40.1641 80.0857 40.6393C80.5791 41.1144 80.8259 41.8271 80.8259 42.7774C80.8259 43.2891 80.7345 43.8191 80.5517 44.3673C80.369 44.9338 80.104 45.4638 79.7568 45.9572C79.4096 46.4507 78.9892 46.8893 78.4958 47.273C78.0024 47.6751 77.445 47.9675 76.8237 48.1502L76.2754 47.3278Z" fill="#FF2F2F"/>
<path d="M85.2562 41.6809C85.2562 41.1327 85.4298 40.6941 85.777 40.3651C86.1242 40.0362 86.5719 39.8717 87.1202 39.8717C87.6867 39.8717 88.1436 40.0362 88.4908 40.3651C88.838 40.6941 89.0116 41.1327 89.0116 41.6809C89.0116 42.2109 88.838 42.6404 88.4908 42.9693C88.1436 43.2982 87.6867 43.4627 87.1202 43.4627C86.5719 43.4627 86.1242 43.2982 85.777 42.9693C85.4298 42.6404 85.2562 42.2109 85.2562 41.6809Z" fill="#FF2F2F"/>
<path d="M93.5816 41.6809C93.5816 41.1327 93.7552 40.6941 94.1024 40.3651C94.4496 40.0362 94.8973 39.8717 95.4456 39.8717C96.0121 39.8717 96.469 40.0362 96.8162 40.3651C97.1634 40.6941 97.337 41.1327 97.337 41.6809C97.337 42.2109 97.1634 42.6404 96.8162 42.9693C96.469 43.2982 96.0121 43.4627 95.4456 43.4627C94.8973 43.4627 94.4496 43.2982 94.1024 42.9693C93.7552 42.6404 93.5816 42.2109 93.5816 41.6809Z" fill="#FF2F2F"/>
<path d="M101.907 41.6809C101.907 41.1327 102.081 40.6941 102.428 40.3651C102.775 40.0362 103.223 39.8717 103.771 39.8717C104.338 39.8717 104.794 40.0362 105.142 40.3651C105.489 40.6941 105.662 41.1327 105.662 41.6809C105.662 42.2109 105.489 42.6404 105.142 42.9693C104.794 43.2982 104.338 43.4627 103.771 43.4627C103.223 43.4627 102.775 43.2982 102.428 42.9693C102.081 42.6404 101.907 42.2109 101.907 41.6809Z" fill="#FF2F2F"/>
<path d="M109.684 47.3278C110.031 47.1999 110.36 46.9989 110.671 46.7248C110.982 46.4689 111.247 46.1765 111.466 45.8476C111.703 45.5186 111.877 45.1531 111.987 44.7511C112.115 44.3673 112.16 43.9836 112.124 43.5998C111.905 43.3988 111.612 43.1977 111.247 42.9967C110.881 42.7957 110.561 42.6495 110.287 42.5581C110.196 42.2109 110.187 41.8728 110.26 41.5439C110.351 41.2149 110.479 40.9225 110.644 40.6667C110.808 40.4108 110.991 40.2098 111.192 40.0636C111.411 39.8991 111.621 39.8077 111.822 39.7895C112.462 39.8808 113.019 40.1641 113.494 40.6393C113.988 41.1144 114.235 41.8271 114.235 42.7774C114.235 43.2891 114.143 43.8191 113.96 44.3673C113.778 44.9338 113.513 45.4638 113.165 45.9572C112.818 46.4507 112.398 46.8893 111.905 47.273C111.411 47.6751 110.854 47.9675 110.232 48.1502L109.684 47.3278Z" fill="#FF2F2F"/>
<path d="M127.288 39.6524C127.288 40.0545 127.298 40.4017 127.316 40.6941C127.334 40.9865 127.352 41.2971 127.371 41.6261L129.262 41.9002V42.4759C128.805 42.7134 128.293 42.9236 127.727 43.1064C127.179 43.2891 126.649 43.4262 126.137 43.5175H125.452C125.269 43.0972 125.159 42.6403 125.123 42.1469C125.086 41.6352 125.059 41.0779 125.041 40.4748H124.904C124.83 40.8403 124.684 41.2149 124.465 41.5987C124.264 41.9642 123.99 42.2931 123.643 42.5855C123.314 42.8779 122.921 43.1155 122.464 43.2982C122.007 43.481 121.486 43.5724 120.901 43.5724C119.787 43.5724 118.873 43.2343 118.16 42.5581C117.466 41.8819 117.118 40.9956 117.118 39.8991C117.118 39.0585 117.283 38.3732 117.612 37.8432C117.959 37.295 118.462 36.8655 119.12 36.5548C119.777 36.2442 120.591 36.0249 121.559 35.8969C122.528 35.7507 123.652 35.6411 124.931 35.568C125.004 34.7822 125.022 34.0786 124.986 33.4572C124.967 32.8176 124.867 32.2785 124.684 31.8399C124.52 31.383 124.264 31.0358 123.917 30.7982C123.588 30.5424 123.149 30.4145 122.601 30.4145C122.345 30.4145 122.053 30.4327 121.724 30.4693C121.413 30.4876 121.102 30.5607 120.792 30.6886L119.503 33.9781H118.791C118.608 33.4298 118.443 32.8633 118.297 32.2785C118.169 31.6937 118.087 31.1181 118.05 30.5515C118.745 30.1312 119.512 29.8023 120.353 29.5647C121.212 29.3271 122.162 29.2083 123.204 29.2083C124.136 29.2083 124.876 29.3454 125.424 29.6195C125.991 29.8754 126.42 30.2135 126.713 30.6338C127.005 31.0541 127.197 31.5201 127.288 32.0318C127.38 32.5435 127.425 33.0552 127.425 33.5669C127.425 34.6634 127.398 35.7233 127.343 36.7467C127.307 37.7518 127.288 38.7204 127.288 39.6524ZM121.998 41.8728C122.455 41.8728 122.857 41.7814 123.204 41.5987C123.551 41.4159 123.844 41.1966 124.081 40.9408C124.319 40.6849 124.511 40.4291 124.657 40.1732C124.803 39.8991 124.904 39.6707 124.958 39.4879V36.6096C123.898 36.6096 123.03 36.6645 122.354 36.7741C121.678 36.8838 121.148 37.0574 120.764 37.295C120.38 37.5325 120.116 37.8341 119.969 38.1996C119.823 38.5468 119.75 38.9488 119.75 39.4057C119.75 40.1915 119.951 40.8037 120.353 41.2423C120.755 41.6626 121.303 41.8728 121.998 41.8728Z" fill="#FF2F2F"/>
<path d="M139.116 43.2434H135.678V42.8437C135.966 42.6944 136.28 42.5665 136.621 42.4599V38.6701C136.621 37.86 136.504 37.2203 136.27 36.7513C136.035 36.2822 135.609 36.0477 134.99 36.0477C134.724 36.0477 134.473 36.0957 134.239 36.1916C134.015 36.2876 133.812 36.4208 133.631 36.5914C133.461 36.7513 133.311 36.9378 133.183 37.151C133.055 37.3536 132.954 37.5668 132.88 37.7907V42.4599C133.21 42.5238 133.53 42.6518 133.839 42.8437V43.2434H130.385V42.8437C130.652 42.7051 131.003 42.5771 131.44 42.4599V36.1756L130.385 36.0477V35.6319C130.662 35.5147 130.982 35.4081 131.344 35.3121C131.707 35.2162 132.085 35.1309 132.48 35.0563H132.88V36.8472H132.896C133.119 36.3568 133.439 35.9358 133.855 35.584C134.281 35.2322 134.793 35.0563 135.39 35.0563C135.816 35.0563 136.195 35.1096 136.525 35.2162C136.867 35.3121 137.149 35.488 137.373 35.7439C137.597 35.9997 137.767 36.3462 137.885 36.7833C138.002 37.2097 138.06 37.7533 138.06 38.4143V42.4599C138.487 42.5345 138.839 42.6624 139.116 42.8437V43.2434Z" fill="#FF2F2F"/>
<path d="M140.519 38.2384H145.028V39.2458H140.519V38.2384Z" fill="#FF2F2F"/>
<path d="M148.303 35.1682H147.903C147.786 34.8591 147.664 34.4966 147.536 34.0809C147.418 33.6651 147.317 33.2707 147.232 32.8976C147.605 32.5778 148.053 32.3272 148.575 32.146C149.097 31.9541 149.662 31.8582 150.27 31.8582C150.803 31.8582 151.262 31.9328 151.645 32.0821C152.029 32.2313 152.344 32.4338 152.589 32.6897C152.845 32.9455 153.031 33.244 153.148 33.5852C153.266 33.9156 153.324 34.2621 153.324 34.6245C153.324 35.2215 153.186 35.8345 152.909 36.4634C152.631 37.0924 152.285 37.7054 151.869 38.3024C151.464 38.8887 151.022 39.443 150.542 39.9654C150.062 40.4877 149.62 40.9461 149.215 41.3406L148.543 41.9642V42.0281L149.439 41.9322H152.189L152.972 40.1413H153.372C153.394 40.3758 153.415 40.6316 153.436 40.9088C153.458 41.186 153.474 41.4685 153.484 41.7563C153.506 42.0335 153.522 42.3053 153.532 42.5718C153.543 42.8277 153.548 43.0515 153.548 43.2434H146.944V42.7317C147.179 42.4865 147.461 42.188 147.792 41.8363C148.133 41.4845 148.484 41.0954 148.847 40.669C149.209 40.2425 149.567 39.7895 149.918 39.3098C150.281 38.83 150.601 38.345 150.878 37.8546C151.155 37.3536 151.379 36.8579 151.549 36.3675C151.731 35.8771 151.821 35.4081 151.821 34.9603C151.821 34.6512 151.779 34.358 151.693 34.0809C151.619 33.8037 151.501 33.5638 151.341 33.3613C151.182 33.1481 150.984 32.9829 150.75 32.8656C150.526 32.7483 150.265 32.6897 149.966 32.6897C149.742 32.6897 149.545 32.7057 149.375 32.7377C149.204 32.7696 149.018 32.8176 148.815 32.8816L148.303 35.1682Z" fill="#FF2F2F"/>
<path d="M165.942 39.6524C165.942 40.0545 165.951 40.4017 165.969 40.6941C165.987 40.9865 166.006 41.2971 166.024 41.6261L167.915 41.9002V42.4759C167.459 42.7134 166.947 42.9236 166.38 43.1064C165.832 43.2891 165.302 43.4262 164.79 43.5175H164.105C163.922 43.0972 163.813 42.6403 163.776 42.1469C163.74 41.6352 163.712 41.0779 163.694 40.4748H163.557C163.484 40.8403 163.338 41.2149 163.118 41.5987C162.917 41.9642 162.643 42.2931 162.296 42.5855C161.967 42.8779 161.574 43.1155 161.117 43.2982C160.66 43.481 160.139 43.5724 159.555 43.5724C158.44 43.5724 157.526 43.2343 156.813 42.5581C156.119 41.8819 155.772 40.9956 155.772 39.8991C155.772 39.0585 155.936 38.3732 156.265 37.8432C156.612 37.295 157.115 36.8655 157.773 36.5548C158.431 36.2442 159.244 36.0249 160.213 35.8969C161.181 35.7507 162.305 35.6411 163.584 35.568C163.657 34.7822 163.676 34.0786 163.639 33.4572C163.621 32.8176 163.52 32.2785 163.338 31.8399C163.173 31.383 162.917 31.0358 162.57 30.7982C162.241 30.5424 161.803 30.4145 161.254 30.4145C160.998 30.4145 160.706 30.4327 160.377 30.4693C160.066 30.4876 159.756 30.5607 159.445 30.6886L158.157 33.9781H157.444C157.261 33.4298 157.097 32.8633 156.951 32.2785C156.823 31.6937 156.74 31.1181 156.704 30.5515C157.398 30.1312 158.166 29.8023 159.006 29.5647C159.865 29.3271 160.816 29.2083 161.857 29.2083C162.789 29.2083 163.529 29.3454 164.078 29.6195C164.644 29.8754 165.074 30.2135 165.366 30.6338C165.658 31.0541 165.85 31.5201 165.942 32.0318C166.033 32.5435 166.079 33.0552 166.079 33.5669C166.079 34.6634 166.051 35.7233 165.997 36.7467C165.96 37.7518 165.942 38.7204 165.942 39.6524ZM160.651 41.8728C161.108 41.8728 161.51 41.7814 161.857 41.5987C162.205 41.4159 162.497 41.1966 162.735 40.9408C162.972 40.6849 163.164 40.4291 163.31 40.1732C163.456 39.8991 163.557 39.6707 163.612 39.4879V36.6096C162.552 36.6096 161.684 36.6645 161.008 36.7741C160.331 36.8838 159.801 37.0574 159.418 37.295C159.034 37.5325 158.769 37.8341 158.623 38.1996C158.476 38.5468 158.403 38.9488 158.403 39.4057C158.403 40.1915 158.604 40.8037 159.006 41.2423C159.408 41.6626 159.957 41.8728 160.651 41.8728Z" fill="#FF2F2F"/>
<path d="M177.769 43.2434H174.331V42.8437C174.619 42.6944 174.934 42.5665 175.275 42.4599V38.6701C175.275 37.86 175.157 37.2203 174.923 36.7513C174.688 36.2822 174.262 36.0477 173.644 36.0477C173.377 36.0477 173.127 36.0957 172.892 36.1916C172.668 36.2876 172.466 36.4208 172.284 36.5914C172.114 36.7513 171.965 36.9378 171.837 37.151C171.709 37.3536 171.608 37.5668 171.533 37.7907V42.4599C171.863 42.5238 172.183 42.6518 172.492 42.8437V43.2434H169.038V42.8437C169.305 42.7051 169.657 42.5771 170.094 42.4599V36.1756L169.038 36.0477V35.6319C169.316 35.5147 169.635 35.4081 169.998 35.3121C170.36 35.2162 170.739 35.1309 171.133 35.0563H171.533V36.8472H171.549C171.773 36.3568 172.093 35.9358 172.508 35.584C172.935 35.2322 173.446 35.0563 174.043 35.0563C174.47 35.0563 174.848 35.1096 175.179 35.2162C175.52 35.3121 175.802 35.488 176.026 35.7439C176.25 35.9997 176.421 36.3462 176.538 36.7833C176.655 37.2097 176.714 37.7533 176.714 38.4143V42.4599C177.14 42.5345 177.492 42.6624 177.769 42.8437V43.2434Z" fill="#FF2F2F"/>
<path d="M179.172 38.2384H183.682V39.2458H179.172V38.2384Z" fill="#FF2F2F"/>
<path d="M191.626 43.2434H186.957V42.7797C187.223 42.6624 187.49 42.5612 187.756 42.4759C188.033 42.3799 188.31 42.3 188.588 42.236V34.3847L188.652 33.4412C188.353 33.5585 188.044 33.6438 187.724 33.6971C187.404 33.7397 187.074 33.7557 186.733 33.7451L186.653 33.3613C187.143 33.2014 187.65 33.0042 188.172 32.7696C188.694 32.5245 189.179 32.2206 189.627 31.8582H190.027V42.236C190.293 42.3 190.56 42.3799 190.826 42.4759C191.093 42.5612 191.359 42.6624 191.626 42.7797V43.2434Z" fill="#FF2F2F"/>
<path d="M204.595 39.6524C204.595 40.0545 204.604 40.4017 204.623 40.6941C204.641 40.9865 204.659 41.2971 204.677 41.6261L206.569 41.9002V42.4759C206.112 42.7134 205.6 42.9236 205.034 43.1064C204.485 43.2891 203.955 43.4262 203.444 43.5175H202.758C202.576 43.0972 202.466 42.6403 202.43 42.1469C202.393 41.6352 202.366 41.0779 202.347 40.4748H202.21C202.137 40.8403 201.991 41.2149 201.772 41.5987C201.571 41.9642 201.296 42.2931 200.949 42.5855C200.62 42.8779 200.227 43.1155 199.771 43.2982C199.314 43.481 198.793 43.5724 198.208 43.5724C197.093 43.5724 196.18 43.2343 195.467 42.5581C194.772 41.8819 194.425 40.9956 194.425 39.8991C194.425 39.0585 194.59 38.3732 194.919 37.8432C195.266 37.295 195.768 36.8655 196.426 36.5548C197.084 36.2442 197.897 36.0249 198.866 35.8969C199.835 35.7507 200.958 35.6411 202.238 35.568C202.311 34.7822 202.329 34.0786 202.292 33.4572C202.274 32.8176 202.174 32.2785 201.991 31.8399C201.826 31.383 201.571 31.0358 201.223 30.7982C200.894 30.5424 200.456 30.4145 199.908 30.4145C199.652 30.4145 199.359 30.4327 199.03 30.4693C198.72 30.4876 198.409 30.5607 198.098 30.6886L196.81 33.9781H196.097C195.915 33.4298 195.75 32.8633 195.604 32.2785C195.476 31.6937 195.394 31.1181 195.357 30.5515C196.052 30.1312 196.819 29.8023 197.66 29.5647C198.519 29.3271 199.469 29.2083 200.511 29.2083C201.443 29.2083 202.183 29.3454 202.731 29.6195C203.298 29.8754 203.727 30.2135 204.019 30.6338C204.312 31.0541 204.504 31.5201 204.595 32.0318C204.686 32.5435 204.732 33.0552 204.732 33.5669C204.732 34.6634 204.705 35.7233 204.65 36.7467C204.613 37.7518 204.595 38.7204 204.595 39.6524ZM199.305 41.8728C199.761 41.8728 200.163 41.7814 200.511 41.5987C200.858 41.4159 201.15 41.1966 201.388 40.9408C201.625 40.6849 201.817 40.4291 201.964 40.1732C202.11 39.8991 202.21 39.6707 202.265 39.4879V36.6096C201.205 36.6096 200.337 36.6645 199.661 36.7741C198.985 36.8838 198.455 37.0574 198.071 37.295C197.687 37.5325 197.422 37.8341 197.276 38.1996C197.13 38.5468 197.057 38.9488 197.057 39.4057C197.057 40.1915 197.258 40.8037 197.66 41.2423C198.062 41.6626 198.61 41.8728 199.305 41.8728Z" fill="#FF2F2F"/>
<path d="M216.423 43.2434H212.985V42.8437C213.272 42.6944 213.587 42.5665 213.928 42.4599V38.6701C213.928 37.86 213.811 37.2203 213.576 36.7513C213.342 36.2822 212.915 36.0477 212.297 36.0477C212.031 36.0477 211.78 36.0957 211.545 36.1916C211.322 36.2876 211.119 36.4208 210.938 36.5914C210.767 36.7513 210.618 36.9378 210.49 37.151C210.362 37.3536 210.261 37.5668 210.186 37.7907V42.4599C210.517 42.5238 210.837 42.6518 211.146 42.8437V43.2434H207.692V42.8437C207.958 42.7051 208.31 42.5771 208.747 42.4599V36.1756L207.692 36.0477V35.6319C207.969 35.5147 208.289 35.4081 208.651 35.3121C209.014 35.2162 209.392 35.1309 209.787 35.0563H210.186V36.8472H210.202C210.426 36.3568 210.746 35.9358 211.162 35.584C211.588 35.2322 212.1 35.0563 212.697 35.0563C213.123 35.0563 213.502 35.1096 213.832 35.2162C214.173 35.3121 214.456 35.488 214.68 35.7439C214.903 35.9997 215.074 36.3462 215.191 36.7833C215.309 37.2097 215.367 37.7533 215.367 38.4143V42.4599C215.794 42.5345 216.145 42.6624 216.423 42.8437V43.2434Z" fill="#FF2F2F"/>
<path d="M217.211 48.4518C217.887 47.7939 218.518 47.0446 219.103 46.2039C219.706 45.3816 220.227 44.4587 220.665 43.4353C221.104 42.4302 221.451 41.3337 221.707 40.1458C221.963 38.958 222.091 37.6787 222.091 36.3081C222.091 34.9009 221.972 33.64 221.734 32.5252C221.497 31.4105 221.168 30.3871 220.747 29.455C220.327 28.523 219.815 27.655 219.212 26.8509C218.609 26.0468 217.942 25.261 217.211 24.4934L217.787 24C218.719 24.7127 219.587 25.4711 220.391 26.2752C221.213 27.0793 221.926 27.9748 222.529 28.9616C223.132 29.9485 223.607 31.045 223.955 32.2511C224.302 33.4572 224.476 34.8096 224.476 36.3081C224.476 37.8249 224.311 39.2138 223.982 40.4748C223.653 41.7175 223.196 42.8505 222.611 43.8739C222.027 44.9156 221.323 45.8567 220.501 46.6974C219.697 47.5563 218.819 48.3238 217.869 49L217.211 48.4518Z" fill="#FF2F2F"/>
<path d="M57.316 16.192C57.316 15.632 57.148 15.1933 56.812 14.876C56.476 14.5587 56.056 14.2973 55.552 14.092C55.0667 13.868 54.5253 13.6627 53.928 13.476C53.3493 13.2707 52.808 13.0187 52.304 12.72C51.8187 12.4027 51.408 12.0013 51.072 11.516C50.736 11.0307 50.568 10.3773 50.568 9.556C50.568 8.212 50.9507 7.232 51.716 6.616C52.4813 5.98133 53.5453 5.664 54.908 5.664C55.916 5.664 56.756 5.75733 57.428 5.944C58.1187 6.112 58.716 6.31733 59.22 6.56L58.688 8.408C58.2587 8.20267 57.736 8.02533 57.12 7.876C56.5227 7.708 55.8787 7.624 55.188 7.624C54.3667 7.624 53.76 7.764 53.368 8.044C52.9947 8.324 52.808 8.80933 52.808 9.5C52.808 9.98533 52.976 10.368 53.312 10.648C53.648 10.9093 54.0587 11.152 54.544 11.376C55.048 11.5813 55.5893 11.7867 56.168 11.992C56.7653 12.1973 57.3067 12.468 57.792 12.804C58.296 13.14 58.716 13.5693 59.052 14.092C59.388 14.596 59.556 15.268 59.556 16.108C59.556 16.7053 59.4533 17.2653 59.248 17.788C59.0613 18.3107 58.7627 18.7587 58.352 19.132C57.9413 19.5053 57.428 19.7947 56.812 20C56.2147 20.224 55.5053 20.336 54.684 20.336C53.62 20.336 52.7147 20.2333 51.968 20.028C51.2213 19.8227 50.596 19.58 50.092 19.3L50.764 17.396C51.1933 17.6387 51.7533 17.8627 52.444 18.068C53.1347 18.2733 53.8347 18.376 54.544 18.376C55.3467 18.376 56.0093 18.2173 56.532 17.9C57.0547 17.5827 57.316 17.0133 57.316 16.192Z" fill="black"/>
<path d="M63.4172 6H65.6572V20H63.4172V6ZM62.9412 1.744C62.9412 1.31467 63.0812 0.950665 63.3612 0.651998C63.6598 0.334665 64.0332 0.175999 64.4812 0.175999C64.9292 0.175999 65.3118 0.334665 65.6292 0.651998C65.9465 0.950665 66.1052 1.31467 66.1052 1.744C66.1052 2.17333 65.9465 2.528 65.6292 2.808C65.3118 3.088 64.9292 3.228 64.4812 3.228C64.0332 3.228 63.6598 3.088 63.3612 2.808C63.0812 2.528 62.9412 2.17333 62.9412 1.744Z" fill="black"/>
<path d="M78.6373 20V12.076C78.6373 11.3293 78.6 10.6853 78.5253 10.144C78.4693 9.584 78.348 9.11733 78.1613 8.744C77.9747 8.37066 77.704 8.09066 77.3493 7.904C77.0133 7.71733 76.5653 7.624 76.0053 7.624C75.1467 7.624 74.428 7.88533 73.8493 8.408C73.2893 8.93067 72.8973 9.584 72.6733 10.368V20H70.4333V6H72.0013L72.4213 7.708H72.5333C73.0373 7.11067 73.616 6.62533 74.2693 6.252C74.9413 5.86 75.8093 5.664 76.8733 5.664C77.7693 5.664 78.4973 5.84133 79.0573 6.196C79.636 6.532 80.084 7.12933 80.4013 7.988C80.8307 7.26 81.4187 6.69067 82.1653 6.28C82.9307 5.86933 83.7893 5.664 84.7413 5.664C85.5253 5.664 86.188 5.75733 86.7293 5.944C87.2707 6.112 87.7187 6.42 88.0733 6.868C88.428 7.316 88.68 7.92267 88.8293 8.688C88.9973 9.45333 89.0813 10.424 89.0813 11.6V20H86.8414V11.572C86.8414 10.9 86.804 10.3213 86.7293 9.836C86.6733 9.332 86.5427 8.92133 86.3373 8.604C86.1507 8.268 85.88 8.02533 85.5253 7.876C85.1893 7.708 84.7413 7.624 84.1813 7.624C83.248 7.624 82.52 7.88533 81.9973 8.408C81.4747 8.93067 81.1013 9.67733 80.8773 10.648V20H78.6373Z" fill="black"/>
<path d="M93.156 6H94.696L95.116 7.68H95.228C95.6573 7.02667 96.208 6.532 96.88 6.196C97.5707 5.84133 98.3547 5.664 99.232 5.664C101.099 5.664 102.489 6.21467 103.404 7.316C104.319 8.41733 104.776 10.2187 104.776 12.72C104.776 13.896 104.617 14.96 104.3 15.912C104.001 16.8453 103.572 17.6387 103.012 18.292C102.452 18.9453 101.771 19.4493 100.968 19.804C100.184 20.1587 99.3067 20.336 98.336 20.336C97.6453 20.336 97.0947 20.2893 96.684 20.196C96.292 20.1213 95.8627 19.9813 95.396 19.776V25.6H93.156V6ZM98.812 7.624C97.86 7.624 97.104 7.876 96.544 8.38C96.0027 8.86533 95.62 9.612 95.396 10.62V17.564C95.732 17.8253 96.1147 18.0307 96.544 18.18C96.9733 18.3107 97.5427 18.376 98.252 18.376C99.54 18.376 100.557 17.9 101.304 16.948C102.069 15.9773 102.452 14.5587 102.452 12.692C102.452 11.9267 102.387 11.236 102.256 10.62C102.125 9.98533 101.911 9.45333 101.612 9.024C101.332 8.576 100.959 8.23066 100.492 7.988C100.044 7.74533 99.484 7.624 98.812 7.624Z" fill="black"/>
<path d="M110.796 16.556C110.796 17.2093 110.908 17.676 111.132 17.956C111.356 18.236 111.674 18.376 112.084 18.376C112.327 18.376 112.588 18.3573 112.868 18.32C113.148 18.2827 113.466 18.1987 113.82 18.068L114.072 19.832C113.774 19.9813 113.354 20.1027 112.812 20.196C112.29 20.2893 111.832 20.336 111.44 20.336C110.6 20.336 109.91 20.1027 109.368 19.636C108.827 19.1507 108.556 18.3387 108.556 17.2V0.399998H110.796V16.556Z" fill="black"/>
<path d="M126.7 18.88C126.14 19.328 125.431 19.6827 124.572 19.944C123.732 20.2053 122.836 20.336 121.884 20.336C120.82 20.336 119.896 20.168 119.112 19.832C118.328 19.4773 117.684 18.9827 117.18 18.348C116.676 17.6947 116.303 16.92 116.06 16.024C115.818 15.128 115.696 14.12 115.696 13C115.696 10.6107 116.228 8.79066 117.292 7.54C118.356 6.28933 119.878 5.664 121.856 5.664C122.491 5.664 123.126 5.73866 123.76 5.888C124.395 6.01867 124.964 6.28 125.468 6.672C125.972 7.064 126.383 7.624 126.7 8.352C127.018 9.06133 127.176 10.004 127.176 11.18C127.176 11.796 127.12 12.4773 127.008 13.224H118.02C118.02 14.0453 118.104 14.7733 118.272 15.408C118.44 16.0427 118.702 16.584 119.056 17.032C119.411 17.4613 119.868 17.7973 120.428 18.04C121.007 18.264 121.707 18.376 122.528 18.376C123.163 18.376 123.798 18.264 124.432 18.04C125.067 17.816 125.543 17.5547 125.86 17.256L126.7 18.88ZM121.884 7.624C120.783 7.624 119.896 7.91333 119.224 8.492C118.571 9.07067 118.179 10.06 118.048 11.46H124.992C124.992 10.0413 124.722 9.052 124.18 8.492C123.639 7.91333 122.874 7.624 121.884 7.624Z" fill="black"/>
<path d="M130.195 10.9H136.971V12.972H130.195V10.9Z" fill="black"/>
<path d="M150.337 19.076C149.777 19.4867 149.114 19.7947 148.349 20C147.583 20.224 146.781 20.336 145.941 20.336C144.858 20.336 143.943 20.168 143.197 19.832C142.45 19.4773 141.834 18.9827 141.349 18.348C140.882 17.6947 140.537 16.92 140.313 16.024C140.107 15.1093 140.005 14.1013 140.005 13C140.005 10.6293 140.527 8.81867 141.573 7.568C142.618 6.29866 144.121 5.664 146.081 5.664C146.977 5.664 147.733 5.73866 148.349 5.888C148.983 6.01867 149.553 6.21467 150.057 6.476L149.413 8.408C148.983 8.16533 148.507 7.97867 147.985 7.848C147.462 7.69866 146.902 7.624 146.305 7.624C143.654 7.624 142.329 9.416 142.329 13C142.329 13.7093 142.394 14.3907 142.525 15.044C142.674 15.6787 142.907 16.248 143.225 16.752C143.561 17.2373 143.99 17.6293 144.513 17.928C145.054 18.2267 145.717 18.376 146.501 18.376C147.173 18.376 147.77 18.2733 148.293 18.068C148.834 17.8627 149.273 17.6293 149.609 17.368L150.337 19.076Z" fill="black"/>
<path d="M153.198 7.036C153.907 6.60666 154.728 6.28933 155.662 6.084C156.614 5.87867 157.603 5.776 158.63 5.776C159.6 5.776 160.375 5.90666 160.954 6.168C161.551 6.42933 161.999 6.77467 162.298 7.204C162.615 7.61466 162.82 8.072 162.914 8.576C163.026 9.08 163.082 9.584 163.082 10.088C163.082 11.208 163.054 12.3 162.998 13.364C162.942 14.428 162.914 15.436 162.914 16.388C162.914 17.0787 162.942 17.732 162.998 18.348C163.054 18.964 163.156 19.5333 163.306 20.056H161.654L161.066 18.096H160.926C160.758 18.3573 160.543 18.6187 160.282 18.88C160.039 19.1227 159.74 19.3467 159.386 19.552C159.031 19.7387 158.62 19.8973 158.154 20.028C157.687 20.1587 157.155 20.224 156.558 20.224C155.96 20.224 155.4 20.1307 154.878 19.944C154.374 19.7573 153.935 19.496 153.562 19.16C153.188 18.8053 152.89 18.3853 152.666 17.9C152.46 17.4147 152.358 16.864 152.358 16.248C152.358 15.4267 152.526 14.7453 152.862 14.204C153.198 13.644 153.664 13.2053 154.262 12.888C154.878 12.552 155.606 12.3187 156.446 12.188C157.304 12.0387 158.247 11.964 159.274 11.964C159.535 11.964 159.787 11.964 160.03 11.964C160.291 11.964 160.552 11.9827 160.814 12.02C160.87 11.46 160.898 10.956 160.898 10.508C160.898 9.48133 160.692 8.76266 160.282 8.352C159.871 7.94133 159.124 7.736 158.042 7.736C157.724 7.736 157.379 7.764 157.006 7.82C156.651 7.85733 156.278 7.92266 155.886 8.016C155.512 8.09066 155.148 8.19333 154.794 8.324C154.458 8.436 154.159 8.56667 153.898 8.716L153.198 7.036ZM157.174 18.264C157.696 18.264 158.163 18.1987 158.574 18.068C158.984 17.9187 159.339 17.7413 159.638 17.536C159.936 17.312 160.179 17.0693 160.366 16.808C160.571 16.5467 160.72 16.2947 160.814 16.052V13.728C160.552 13.7093 160.282 13.7 160.002 13.7C159.74 13.6813 159.479 13.672 159.218 13.672C158.639 13.672 158.07 13.7093 157.51 13.784C156.968 13.84 156.483 13.9613 156.054 14.148C155.643 14.316 155.307 14.5587 155.046 14.876C154.803 15.1747 154.682 15.5573 154.682 16.024C154.682 16.6773 154.915 17.2187 155.382 17.648C155.848 18.0587 156.446 18.264 157.174 18.264Z" fill="black"/>
<path d="M165.464 6H167.648V3.228L169.888 2.584V6H173.696V7.96H169.888V15.716C169.888 16.6867 170.01 17.3773 170.252 17.788C170.495 18.18 170.906 18.376 171.484 18.376C171.97 18.376 172.38 18.3293 172.716 18.236C173.052 18.124 173.426 17.984 173.836 17.816L174.34 19.524C173.836 19.7667 173.286 19.9627 172.688 20.112C172.091 20.2613 171.447 20.336 170.756 20.336C169.618 20.336 168.815 20.0187 168.348 19.384C167.882 18.7307 167.648 17.648 167.648 16.136V7.96H165.464V6Z" fill="black"/>
</svg>
